<svg xmlns="http://www.w3.org/2000/svg" width="2128.41" height="1325.699" viewBox="0 0 2128.41 1325.699"><defs><style>.a{fill:none;stroke:#545454;}</style></defs><g transform="translate(0.517 0.5)"><path class="a" d="M502.391,940.416c-6.128,27.686-8.92,56.926-11.61,85.214-2.666,27.772-5.4,56.483-11.3,84.345C435.924,1315.773,311.958,1452.787,111,1517.17-82.932,1579.3-261.126,1538.7-418.619,1396.441c-108.493-98-164.913-227.223-177.518-406.685-8.514-121.065-90.4-240.789-254.092-240.789-3.746,0-7.509.068-11.336.19-122.512,4.047-225.489,96.768-239.545,215.7-16.239,137.525,55.169,250.471,177.707,281.028,25.4,6.326,52.15,10.089,78.036,13.723,18.228,2.577,37.079,5.219,55.557,8.766,161.266,30.921,274.056,89.921,354.934,185.662,78.208,92.576,119.595,209.327,130.247,367.427,9.244,137.045,122.82,244.6,258.589,244.851h.541c115.927.009,214.367-72.111,245.111-179.612,12.357-43.183,18.323-88.426,24.309-138.843,16.682-140.515,75.353-256.017,174.391-343.267,86.593-76.3,193.614-118.551,347.023-136.992,62.379-7.52,113.856-22,153.019-43.017,102.04-54.857,149.037-175.5,114.286-293.372-35.59-120.771-130.88-189.594-261.9-189.594-2.125,0-4.236.01-6.372.053C627.41,743.638,527.911,825.357,502.391,940.416Z" transform="translate(1103.396 -741.611)"/><path class="a" d="M-851.859,755.334h-.687c-90.779,0-164.9,73.187-165.4,163.469-.257,46.616,16.973,89.808,48.506,121.6,30.417,30.65,71.285,47.594,115.1,47.713h.447c43.718,0,84.333-16.5,114.428-46.479,30.934-30.826,48-72.974,48.046-118.69C-691.307,829.313-761.787,755.691-851.859,755.334Z" transform="translate(1911.161 -611.886)"/></g></svg>