<svg xmlns="http://www.w3.org/2000/svg" width="75.861" height="24" viewBox="0 0 75.861 24"><defs><style>.a,.b{fill:none;stroke:#0d0d0d;}.b{stroke-linecap:round;stroke-linejoin:round;}.c{fill:#d95a2b;font-size:10px;font-family:Roboto-Regular, Roboto;}.d{fill:#0d0d0d;font-size:12px;font-family:Roboto-Bold, Roboto;font-weight:700;}</style></defs><g transform="translate(-1240.784 -678)"><g transform="translate(1315.852 670.734)"><path class="a" d="M-21.13,29.091l15.77-8.9a1.023,1.023,0,0,0,.375-1.525,1.231,1.231,0,0,0-.375-.333l-15.77-8.9a1.368,1.368,0,0,0-1.738.333,1.008,1.008,0,0,0-.2.6V28.158A1.2,1.2,0,0,0-21.8,29.266,1.384,1.384,0,0,0-21.13,29.091Z" transform="translate(0 0)"/><line class="b" y2="19.999" transform="translate(0.293 9.266)"/></g><g transform="translate(1)"><text class="c" transform="translate(1281.784 699)"><tspan x="-41.289" y="0">Siguiente</tspan></text><text class="d" transform="translate(1281.784 689)"><tspan x="-41.742" y="0">Cámara</tspan></text></g></g></svg>