<svg xmlns="http://www.w3.org/2000/svg" width="36" height="36" viewBox="0 0 36 36"><defs><style>.a,.d{fill:none;}.a{stroke:#fff;stroke-width:2px;}.b{fill:#fff;}.c{stroke:none;}</style></defs><g transform="translate(-1019.356 -164)"><g class="a" transform="translate(1019.356 164)"><circle class="c" cx="18" cy="18" r="18"/><circle class="d" cx="18" cy="18" r="17"/></g><path class="b" d="M6,2A2,2,0,0,0,4,4V20a2,2,0,0,0,2,2H18a2,2,0,0,0,2-2V8L14,2H6M6,4h7V9h5V20H6V4m2,8v2h8V12H8m0,4v2h5V16Z" transform="translate(1025.356 170)"/></g></svg>