<svg xmlns="http://www.w3.org/2000/svg" width="16" height="16" viewBox="0 0 16 16"><defs><style>.a{fill:#0d0d0d;}.b{fill:#fff;}</style></defs><g transform="translate(0.139)"><circle class="a" cx="8" cy="8" r="8" transform="translate(-0.139)"/><path class="b" d="M3.413,6.232A1.991,1.991,0,1,0,1.422,4.241,1.99,1.99,0,0,0,3.413,6.232ZM4.778,6.8H4.63A2.749,2.749,0,0,1,2.2,6.8H2.048A2.048,2.048,0,0,0,0,8.848V9.36a.853.853,0,0,0,.853.853H5.972a.853.853,0,0,0,.853-.853V8.848A2.048,2.048,0,0,0,4.778,6.8Zm3.754-.569A1.706,1.706,0,1,0,6.826,4.525,1.707,1.707,0,0,0,8.532,6.232Zm.853.569H9.318a2.241,2.241,0,0,1-1.571,0H7.679a1.974,1.974,0,0,0-.99.274,2.6,2.6,0,0,1,.706,1.774v.683c0,.039-.009.076-.011.114h3.139a.853.853,0,0,0,.853-.853A1.99,1.99,0,0,0,9.385,6.8Z" transform="translate(2.312 1.546)"/></g></svg>