<svg xmlns="http://www.w3.org/2000/svg" width="141.458" height="37.907" viewBox="0 0 141.458 37.907"><defs><style>.a{fill:#fff;}</style></defs><g transform="translate(1103.396 -741.611)"><g transform="translate(-1040.073 752.093)"><path class="a" d="M-828.972,799a2.146,2.146,0,0,0-2.282-2.189h-.016a2.053,2.053,0,0,0-2.233,2.205c-.054,2.633-.093,5.009-.027,7.426a5.916,5.916,0,0,0,3.674,5.491,6.29,6.29,0,0,0,6.631-.651,1.934,1.934,0,0,0,.233-.2,1.314,1.314,0,0,1,.858-.461l.154-.009.1.121c.013.016.029.031.044.046a.587.587,0,0,1,.188.312c.277,1.632,1.1,1.586,2.894,1.483.18-.01.367-.021.561-.03,1.187-.056,1.276-.881,1.276-2.133q0-1.56,0-3.12c0-2.449.005-4.981-.007-7.471a3.423,3.423,0,0,0-.735-2.461,2.221,2.221,0,0,0-1.625-.547c-1.578.013-2.289.961-2.307,3.077-.01,1.221-.009,2.443-.007,3.664v1.63a4.038,4.038,0,0,1-.671,2.485,3.7,3.7,0,0,1-4.016,1.394,3.608,3.608,0,0,1-2.629-3.481c-.028-1.027-.025-2.07-.022-3.078C-828.933,801.353-828.93,800.164-828.972,799Z" transform="translate(850.955 -790.781)"/><path class="a" d="M-878.325,797.052a2.112,2.112,0,0,0-1.695.105,4.149,4.149,0,0,0-1.629,2.657c-.48,1.738-.964,3.475-1.456,5.241l-.765,2.746-.362-.363c-.068-.068-.123-.117-.167-.155a.615.615,0,0,1-.22-.292q-.465-1.625-.923-3.252-.669-2.366-1.347-4.728a2.926,2.926,0,0,0-1.324-1.81,2.143,2.143,0,0,0-1.041-.266,2.48,2.48,0,0,0-.7.1,2.369,2.369,0,0,0-1.485,1.147,2.687,2.687,0,0,0-.088,2.116c1.044,3.212,2.119,6.353,3.2,9.335a4.283,4.283,0,0,0,4.175,3.019h0a4.365,4.365,0,0,0,4.237-3.13c.546-1.531,1.08-3.1,1.6-4.609.415-1.216.83-2.431,1.255-3.643a4.121,4.121,0,0,0,.156-3.157A2.19,2.19,0,0,0-878.325,797.052Z" transform="translate(891.702 -790.862)"/><path class="a" d="M-704.541,779.817a5.614,5.614,0,0,0-.162-1.472,2.22,2.22,0,0,0-2.293-1.691,3.6,3.6,0,0,0-.367.019,2.124,2.124,0,0,0-2.016,2.191c-.032,5.506-.033,11.326,0,17.3a2.261,2.261,0,0,0,2.013,2.253,2.411,2.411,0,0,0,2.659-1.694,5.378,5.378,0,0,0,.167-1.467c.013-1.9.011-3.833.009-5.7v-4.022C-704.53,783.658-704.529,781.721-704.541,779.817Z" transform="translate(763.933 -776.654)"/><path class="a" d="M-668.786,803.918c.006-1.387.013-2.82-.016-4.228a2.025,2.025,0,0,0-1.517-2.086,2.022,2.022,0,0,0-2.456.756c-.285.495-.553.746-.868.814-.439.1-.842-.194-1.268-.5a6.187,6.187,0,0,0-6.753-.5,6.031,6.031,0,0,0-3.442,5.661c-.008.471-.006.943,0,1.414,0,.339,0,.678,0,1.017a6.193,6.193,0,0,0,3.4,5.973,6.105,6.105,0,0,0,6.857-.521,1.585,1.585,0,0,1,.859-.389.66.66,0,0,1,.178.024c.344.1.54.456.7.832.347.811,1.774,1.144,3.25.758.8-.208,1.1-.713,1.09-1.8-.014-1.281-.011-2.583-.008-3.843q0-.652,0-1.3h-.01v-.3Q-668.791,804.807-668.786,803.918Zm-5.929,5.01a3.228,3.228,0,0,1-2.134.739,4.544,4.544,0,0,1-.768-.067c-2.113-.36-3.1-2.089-2.948-5.137a3.751,3.751,0,0,1,3.466-3.726,3.3,3.3,0,0,1,2.5.868,4.786,4.786,0,0,1,1.275,3.57A4.722,4.722,0,0,1-674.716,808.928Z" transform="translate(746.91 -791.197)"/><path class="a" d="M-762.1,796.946h-.069a7.881,7.881,0,0,0-7.781,7.584,7.791,7.791,0,0,0,7.347,8.119c1.769.087,3.579.052,5.329.019l.391-.008a1.967,1.967,0,0,0,1.4-.549,1.411,1.411,0,0,0,.4-1.027c-.019-.893-.77-1.506-1.868-1.526-1.032-.019-2.083-.018-3.1-.015-.641,0-1.281,0-1.921,0a4.717,4.717,0,0,1-3.83-1.888l-.07-.086a.949.949,0,0,1-.246-1.134.866.866,0,0,1,.9-.349c.051,0,.1.006.148.006,1.185-.006,2.37-.006,3.555,0h.891l.293-.007c.463,0,.926,0,1.39.005,1.048.006,2.133.012,3.2-.014a1.662,1.662,0,0,0,1.216-.42,1.7,1.7,0,0,0,.331-1.268A7.949,7.949,0,0,0-762.1,796.946Zm3.962,6.154c-.175.343-.624.385-.947.387-.663,0-1.327,0-1.99,0h-1.02l-.7,0-.859,0c-.388,0-.779,0-1.167-.009-.052,0-.108,0-.164,0a.95.95,0,0,1-1-.43.92.92,0,0,1,.266-1.083c.032-.037.064-.073.093-.11h0a4.471,4.471,0,0,1,3.654-1.622,4.526,4.526,0,0,1,3.567,1.81C-758.187,802.359-757.957,802.754-758.133,803.1Z" transform="translate(806.368 -790.876)"/></g><g transform="translate(-1103.396 741.611)"><path class="a" d="M-1057.446,747.3a20.244,20.244,0,0,0-.332,2.438,21.65,21.65,0,0,1-.323,2.414,14.73,14.73,0,0,1-10.544,11.652c-5.549,1.778-10.648.616-15.155-3.455-3.1-2.8-4.719-6.5-5.08-11.637-.244-3.464-2.587-6.89-7.271-6.89-.107,0-.215,0-.324.005a7.122,7.122,0,0,0-6.855,6.172c-.465,3.935,1.579,7.167,5.085,8.042a21.9,21.9,0,0,0,2.233.393c.522.074,1.061.149,1.59.251,4.615.885,7.842,2.573,10.156,5.313,2.238,2.649,3.422,5.99,3.727,10.514a7.492,7.492,0,0,0,7.4,7.006h.016a7.16,7.16,0,0,0,7.014-5.14,25.2,25.2,0,0,0,.7-3.973,15.014,15.014,0,0,1,4.99-9.823c2.478-2.183,5.54-3.392,9.93-3.92a12.507,12.507,0,0,0,4.379-1.231,7.094,7.094,0,0,0,3.27-8.395,7.308,7.308,0,0,0-7.495-5.425l-.182,0A7.212,7.212,0,0,0-1057.446,747.3Z" transform="translate(1103.396 -741.611)"/><path class="a" d="M-1013.2,755.334h-.02a4.725,4.725,0,0,0-4.733,4.678,4.855,4.855,0,0,0,1.388,3.479,4.621,4.621,0,0,0,3.294,1.365h.013a4.6,4.6,0,0,0,3.274-1.33,4.753,4.753,0,0,0,1.375-3.4A4.656,4.656,0,0,0-1013.2,755.334Z" transform="translate(1043.509 -751.229)"/></g></g></svg>