<svg xmlns="http://www.w3.org/2000/svg" width="36" height="36" viewBox="0 0 36 36"><defs><style>.a{fill:#fff;}.b,.d{fill:none;}.b{stroke:#fff;stroke-width:2px;}.c{stroke:none;}</style></defs><g transform="translate(-369.219 -157.809)"><path class="a" d="M15.044,12.764H3.191a.457.457,0,0,0-.456.456v.912a.457.457,0,0,0,.456.456H15.044a.457.457,0,0,0,.456-.456V13.22A.457.457,0,0,0,15.044,12.764Zm1.823-9.117A1.368,1.368,0,0,0,15.5,5.015a1.34,1.34,0,0,0,.125.564L13.562,6.815A.911.911,0,0,1,12.3,6.485L9.981,2.422a1.368,1.368,0,1,0-1.727,0L5.932,6.485a.911.911,0,0,1-1.259.331L2.613,5.579a1.367,1.367,0,1,0-1.245.8,1.4,1.4,0,0,0,.219-.023l2.06,5.493H14.588l2.06-5.493a1.4,1.4,0,0,0,.219.023,1.368,1.368,0,0,0,0-2.735Z" transform="translate(378.046 168.809)"/><g class="b" transform="translate(369.219 157.809)"><circle class="c" cx="18" cy="18" r="18"/><circle class="d" cx="18" cy="18" r="17"/></g></g></svg>