<svg xmlns="http://www.w3.org/2000/svg" width="36" height="36" viewBox="0 0 36 36"><defs><style>.a{fill:#fff;}.b,.d{fill:none;}.b{stroke:#fff;stroke-width:2px;}.c{stroke:none;}</style></defs><g transform="translate(-866.473 -158.809)"><path class="a" d="M6.092,9.357A3.554,3.554,0,1,0,2.538,5.8,3.552,3.552,0,0,0,6.092,9.357Zm2.437,1.015H8.265a4.906,4.906,0,0,1-4.347,0H3.655A3.656,3.656,0,0,0,0,14.027v.914a1.523,1.523,0,0,0,1.523,1.523h9.138a1.523,1.523,0,0,0,1.523-1.523v-.914A3.656,3.656,0,0,0,8.528,10.372Zm6.7-1.015a3.046,3.046,0,1,0-3.046-3.046A3.047,3.047,0,0,0,15.229,9.357Zm1.523,1.015h-.121a4,4,0,0,1-2.8,0h-.121a3.524,3.524,0,0,0-1.767.489,4.643,4.643,0,0,1,1.26,3.166v1.218c0,.07-.016.136-.019.2h5.6a1.523,1.523,0,0,0,1.523-1.523,3.552,3.552,0,0,0-3.554-3.554Z" transform="translate(874.283 167.258)"/><g class="b" transform="translate(866.473 158.809)"><circle class="c" cx="18" cy="18" r="18"/><circle class="d" cx="18" cy="18" r="17"/></g></g></svg>