<svg xmlns="http://www.w3.org/2000/svg" width="76.5" height="24" viewBox="0 0 76.5 24"><defs><style>.a,.b{fill:none;stroke:#0d0d0d;}.b{stroke-linecap:round;stroke-linejoin:round;}.c{fill:#d95a2b;font-size:10px;font-family:Roboto-Regular, Roboto;}.d{fill:#0d0d0d;font-size:12px;font-family:Roboto-Bold, Roboto;font-weight:700;}</style></defs><g transform="translate(-629.5 -678)"><g transform="translate(630 680)"><path class="a" d="M-6.721,29.091l-15.77-8.9a1.023,1.023,0,0,1-.375-1.525,1.231,1.231,0,0,1,.375-.333l15.77-8.9a1.368,1.368,0,0,1,1.738.333,1.008,1.008,0,0,1,.2.6V28.158a1.2,1.2,0,0,1-1.263,1.108A1.384,1.384,0,0,1-6.721,29.091Z" transform="translate(28.143 -9.266)"/><line class="b" y2="19.999" transform="translate(0 0)"/></g><g transform="translate(34)"><text class="c" transform="translate(630 699)"><tspan x="0" y="0">Anterior</tspan></text><text class="d" transform="translate(630 689)"><tspan x="0" y="0">Cámara</tspan></text></g></g></svg>