<svg xmlns="http://www.w3.org/2000/svg" width="26.695" height="31.144" viewBox="0 0 26.695 31.144"><defs><style>.a{fill:#8c8c8c;}</style></defs><path class="a" d="M28.084,8.808a4.044,4.044,0,0,1,.834,1.321,4.011,4.011,0,0,1,.348,1.529V31.679A1.661,1.661,0,0,1,27.6,33.347H4.239a1.661,1.661,0,0,1-1.668-1.668V3.872A1.661,1.661,0,0,1,4.239,2.2H19.811a4.012,4.012,0,0,1,1.529.348,4.044,4.044,0,0,1,1.321.834ZM20.367,4.567V11.1H26.9a1.9,1.9,0,0,0-.382-.713l-5.44-5.44a1.9,1.9,0,0,0-.713-.382Zm6.674,26.556v-17.8h-7.23a1.661,1.661,0,0,1-1.668-1.668V4.428H4.8V31.123H27.041ZM18.108,20.817a13.224,13.224,0,0,0,1.46.973,17.246,17.246,0,0,1,2.033-.122q2.555,0,3.076.852a.84.84,0,0,1,.035.9.05.05,0,0,1-.017.035l-.035.035v.017q-.1.66-1.234.66a7.169,7.169,0,0,1-2-.348,12.672,12.672,0,0,1-2.259-.921,31.294,31.294,0,0,0-6.813,1.443Q9.7,28.9,8.15,28.9a1.011,1.011,0,0,1-.487-.122l-.417-.209q-.017-.017-.1-.087a.718.718,0,0,1-.1-.626,3.774,3.774,0,0,1,.973-1.59A8.4,8.4,0,0,1,10.3,24.588a.254.254,0,0,1,.4.1.1.1,0,0,1,.035.07q.9-1.477,1.86-3.424a26.526,26.526,0,0,0,1.808-4.553,14.049,14.049,0,0,1-.53-2.772,6.757,6.757,0,0,1,.113-2.216q.191-.7.73-.7H15.1a.733.733,0,0,1,.608.261,1.388,1.388,0,0,1,.156,1.182.377.377,0,0,1-.07.139.452.452,0,0,1,.017.139v.521a22.758,22.758,0,0,1-.243,3.337,8.793,8.793,0,0,0,2.537,4.136ZM8.1,27.96a7.674,7.674,0,0,0,2.381-2.746,9.907,9.907,0,0,0-1.521,1.46A5.777,5.777,0,0,0,8.1,27.96Zm6.917-15.989a5.168,5.168,0,0,0-.035,2.294q.017-.122.122-.765,0-.052.122-.747a.391.391,0,0,1,.07-.139.05.05,0,0,1-.017-.035.035.035,0,0,0-.009-.026.035.035,0,0,1-.009-.026,1,1,0,0,0-.226-.626.05.05,0,0,1-.017.035v.035ZM12.859,23.458A25.492,25.492,0,0,1,17.8,22.051a2.621,2.621,0,0,1-.226-.165,3.112,3.112,0,0,1-.278-.235,9.206,9.206,0,0,1-2.207-3.059,23.224,23.224,0,0,1-1.443,3.424q-.521.973-.782,1.443Zm11.227-.278a4.159,4.159,0,0,0-2.433-.417,6.574,6.574,0,0,0,2.155.487,1.686,1.686,0,0,0,.313-.017q0-.017-.035-.052Z" transform="translate(-2.571 -2.204)"/></svg>