<svg xmlns="http://www.w3.org/2000/svg" width="26.643" height="26.643" viewBox="0 0 26.643 26.643"><defs><style>.a{fill:#d95a2b;}</style></defs><g transform="translate(0 26.643) rotate(-90)"><path class="a" d="M.36.366a1.241,1.241,0,0,0,0,1.748l6.129,6.11a1.235,1.235,0,0,0,1.7.038l6.039-6.02A1.234,1.234,0,1,0,12.49.494L7.3,5.6,2.109.359A1.235,1.235,0,0,0,.36.366Z" transform="translate(6.019 10.054)"/><path class="a" d="M0,13.321A13.321,13.321,0,1,0,13.321,0,13.319,13.319,0,0,0,0,13.321ZM21.289,5.354A11.267,11.267,0,1,1,5.354,21.289,11.267,11.267,0,1,1,21.289,5.354Z" transform="translate(0 0)"/></g></svg>