<svg xmlns="http://www.w3.org/2000/svg" width="17.889" height="17.889" viewBox="0 0 17.889 17.889"><defs><style>.a{fill:#0d0d0d;}</style></defs><path class="a" d="M9.619,10.6l4.267-7.388A9.218,9.218,0,0,0,11.945,3,8.93,8.93,0,0,0,6.292,5.013l3.274,5.68ZM20.478,9.261A8.967,8.967,0,0,0,15.111,3.59L11.837,9.261h8.64Zm.233.894h-6.7l.259.447,4.258,7.379a8.865,8.865,0,0,0,2.361-6.038A9.055,9.055,0,0,0,20.71,10.156ZM8.85,11.945,5.361,5.907A8.907,8.907,0,0,0,3,11.945a9.055,9.055,0,0,0,.179,1.789h6.7ZM3.411,14.628A8.967,8.967,0,0,0,8.778,20.3l3.274-5.671H3.411Zm10.08,0L10,20.674a9.218,9.218,0,0,0,1.941.215A8.93,8.93,0,0,0,17.6,18.877L14.324,13.2l-.832,1.431Z" transform="translate(-3 -3)"/></svg>