<svg class="i-arrow" xmlns="http://www.w3.org/2000/svg" width="11.598" height="11.598" viewBox="0 0 11.598 11.598"><defs><style>.a{fill:#707070;}</style></defs><path class="a" d="M14.573,10.139a.54.54,0,0,1,.761,0l2.66,2.668a.538.538,0,0,1,.017.742L15.39,16.178a.537.537,0,1,1-.761-.758l2.228-2.261L14.573,10.9A.532.532,0,0,1,14.573,10.139Z" transform="translate(-10.037 -7.363)"/><path class="a" d="M3.375,9.174a5.8,5.8,0,1,0,5.8-5.8A5.8,5.8,0,0,0,3.375,9.174Zm.892,0a4.912,4.912,0,1,1,1.439,3.468A4.865,4.865,0,0,1,4.267,9.174Z" transform="translate(-3.375 -3.375)"/></svg>