<svg xmlns="http://www.w3.org/2000/svg" width="20.741" height="14.519" viewBox="0 0 20.741 14.519"><defs><style>.a{fill:#0d0d0d;}</style></defs><path class="a" d="M3.111,8.472A2.074,2.074,0,1,0,1.037,6.4,2.076,2.076,0,0,0,3.111,8.472Zm14.519,0A2.074,2.074,0,1,0,15.556,6.4,2.076,2.076,0,0,0,17.63,8.472ZM18.667,9.51H16.593a2.068,2.068,0,0,0-1.462.6,4.74,4.74,0,0,1,2.434,3.545H19.7a1.036,1.036,0,0,0,1.037-1.037V11.584A2.076,2.076,0,0,0,18.667,9.51Zm-8.3,0a3.63,3.63,0,1,0-3.63-3.63A3.628,3.628,0,0,0,10.371,9.51Zm2.489,1.037h-.269a5.011,5.011,0,0,1-4.44,0H7.882A3.734,3.734,0,0,0,4.148,14.28v.933A1.556,1.556,0,0,0,5.7,16.769h9.334a1.556,1.556,0,0,0,1.556-1.556V14.28A3.734,3.734,0,0,0,12.86,10.547Zm-7.25-.434a2.068,2.068,0,0,0-1.462-.6H2.074A2.076,2.076,0,0,0,0,11.584v1.037a1.036,1.036,0,0,0,1.037,1.037H3.173A4.752,4.752,0,0,1,5.61,10.112Z" transform="translate(0 -2.25)"/></svg>