<svg xmlns="http://www.w3.org/2000/svg" width="18.194" height="18.194" viewBox="0 0 18.194 18.194"><defs><style>.a{fill:#fff;}</style></defs><path class="a" d="M17.8,14.06,13.643,9.9a2.638,2.638,0,0,0-3.034-.494L6.821,5.618V3.411L2.272,0,0,2.274,3.409,6.822H5.616L9.4,10.61A2.644,2.644,0,0,0,9.9,13.645l4.161,4.161a1.321,1.321,0,0,0,1.873,0L17.8,15.933a1.328,1.328,0,0,0,0-1.873ZM11.784,7.995a3.738,3.738,0,0,1,2.661,1.1l.689.689a5.03,5.03,0,0,0,1.556-1.048A5.11,5.11,0,0,0,18.038,3.88a.425.425,0,0,0-.714-.2L14.68,6.328l-2.413-.4-.4-2.413L14.51.871a.429.429,0,0,0-.2-.718A5.119,5.119,0,0,0,9.453,1.5,5.035,5.035,0,0,0,7.99,5.181L10.907,8.1a3.871,3.871,0,0,1,.878-.1ZM8.093,10.909,6.078,8.894.663,14.313a2.274,2.274,0,0,0,3.216,3.216L8.27,13.136a3.816,3.816,0,0,1-.178-2.228Zm-5.82,5.863a.853.853,0,1,1,.853-.853A.855.855,0,0,1,2.272,16.771Z" transform="translate(0.004)"/></svg>