<svg xmlns="http://www.w3.org/2000/svg" width="18.227" height="15.949" viewBox="0 0 18.227 15.949"><defs><style>.a{fill:#b5b5b6;}</style></defs><path class="a" d="M9.114,2.25C4.08,2.25,0,5.564,0,9.655a6.572,6.572,0,0,0,2.029,4.653A9.057,9.057,0,0,1,.078,17.718a.283.283,0,0,0-.053.31.279.279,0,0,0,.26.171,8.142,8.142,0,0,0,5.005-1.83,10.857,10.857,0,0,0,3.823.691c5.034,0,9.114-3.314,9.114-7.4S14.148,2.25,9.114,2.25ZM4.557,10.794A1.139,1.139,0,1,1,5.7,9.655,1.138,1.138,0,0,1,4.557,10.794Zm4.557,0a1.139,1.139,0,1,1,1.139-1.139A1.138,1.138,0,0,1,9.114,10.794Zm4.557,0A1.139,1.139,0,1,1,14.81,9.655,1.138,1.138,0,0,1,13.67,10.794Z" transform="translate(0 -2.25)"/></svg>