<svg xmlns="http://www.w3.org/2000/svg" width="21.943" height="17.557" viewBox="0 0 21.943 17.557"><defs><style>.a{fill:#fff;}</style></defs><path class="a" d="M20.934,12.8a4.022,4.022,0,0,0,0-1.461l.885-.511a.248.248,0,0,0,.113-.291,5.146,5.146,0,0,0-1.138-1.968.25.25,0,0,0-.309-.048l-.885.511a4.026,4.026,0,0,0-1.265-.73V7.28a.25.25,0,0,0-.2-.243,5.174,5.174,0,0,0-2.27,0,.25.25,0,0,0-.2.243V8.3a4.026,4.026,0,0,0-1.265.73l-.885-.511a.251.251,0,0,0-.309.048,5.146,5.146,0,0,0-1.138,1.968.253.253,0,0,0,.113.291l.885.511a4.022,4.022,0,0,0,0,1.461l-.885.511a.248.248,0,0,0-.113.291,5.172,5.172,0,0,0,1.138,1.968.25.25,0,0,0,.309.048l.885-.511a4.026,4.026,0,0,0,1.265.73V16.86a.25.25,0,0,0,.2.243,5.174,5.174,0,0,0,2.27,0,.25.25,0,0,0,.2-.243V15.839a4.026,4.026,0,0,0,1.265-.73l.885.511a.251.251,0,0,0,.309-.048A5.146,5.146,0,0,0,21.932,13.6a.253.253,0,0,0-.113-.291l-.885-.511Zm-3.926.933a1.663,1.663,0,1,1,1.663-1.663A1.665,1.665,0,0,1,17.008,13.733ZM7.681,8.778A4.389,4.389,0,1,0,3.292,4.389,4.389,4.389,0,0,0,7.681,8.778Zm6.9,7.767c-.079-.041-.158-.089-.233-.134l-.271.158a1.345,1.345,0,0,1-1.663-.25,6.253,6.253,0,0,1-1.378-2.387,1.341,1.341,0,0,1,.614-1.567l.271-.158q-.005-.134,0-.267l-.271-.158a1.34,1.34,0,0,1-.614-1.567c.031-.1.075-.2.11-.3-.13-.01-.257-.041-.391-.041h-.573a5.969,5.969,0,0,1-5,0H4.609A4.61,4.61,0,0,0,0,14.484v1.426a1.646,1.646,0,0,0,1.646,1.646h12.07a1.644,1.644,0,0,0,.933-.291,1.335,1.335,0,0,1-.069-.4Z"/></svg>